{"title":"2 girls fingering in mums bed","uid":6650313,"size":41233508,"categoryP":"porn","categoryS":"movie_clips","magnet":"?xt=urn:btih:bb0623b5345c56514b70bf4d5bc3dd8d9c79ecb6&amp;dn=2+girls+fingering+in+mums+bed&amp;tr=udp%3A%2F%2Ftracker.openbittorrent.com%3A80&amp;tr=udp%3A%2F%2Fopen.demonii.com%3A1337&amp;tr=udp%3A%2F%2Ftracker.coppersurfer.tk%3A6969&amp;tr=udp%3A%2F%2Fexodus.desync.com%3A6969","seeders":0,"leechers":0,"uploader":"stu181","files":1,"time":1315122111,"description":"Brought to you by &lt;a href=&quot; http://www.protorrent.co.uk&quot; rel=&quot;nofollow&quot; target=&quot;_NEW&quot;&gt; http://www.protorrent.co.uk&lt;/a&gt;\n\nFormat                           : AVI\nFormat/Info                      : Audio Video Interleave\nFile size                        : 39.3 MiB\nDuration                         : 3mn 17s\nOverall bit rate                 : 1 670 Kbps\n\nVideo\nID                               : 0\nFormat                           : MPEG-4 Visual\nFormat profile                   : Advanced Simple@L5\nFormat settings, BVOP            : No\nFormat settings, QPel            : No\nFormat settings, GMC             : No warppoints\nFormat settings, Matrix          : Default (MPEG)\nCodec ID                         : XVID\nCodec ID/Hint                    : XviD\nDuration                         : 3mn 17s\nBit rate                         : 1 468 Kbps\nWidth                            : 640 pixels\nHeight                           : 480 pixels\nDisplay aspect ratio             : 4:3\nFrame rate                       : 25.000 fps\nColor space                      : YUV\nChroma subsampling               : 4:2:0\nBit depth                        : 8 bits\nScan type                        : Progressive\nCompression mode                 : Lossy\nBits/(Pixel*Frame)               : 0.191\nStream size                      : 34.6 MiB (88%)\nWriting library                  : XviD 1.2.1 (UTC 2008-12-04)\n\nAudio\nID                               : 1\nFormat                           : MPEG Audio\nFormat version                   : Version 1\nFormat profile                   : Layer 3\nCodec ID                         : 55\nCodec ID/Hint                    : MP3\nDuration                         : 3mn 17s\nBit rate mode                    : Constant\nBit rate                         : 192 Kbps\nChannel(s)                       : 2 channels\nSampling rate                    : 44.1 KHz\nCompression mode                 : Lossy\nStream size                      : 4.52 MiB (11%)\nAlignment                        : Split accross interleaves\nInterleave, duration             : 41 ms (1.02 video frame)\nWriting library                  : LAMELAME_MAJOR_VERSI","torrent":{"xt":"urn:btih:bb0623b5345c56514b70bf4d5bc3dd8d9c79ecb6","amp;dn":"2+girls+fingering+in+mums+bed","amp;tr":["udp%3A%2F%2Ftracker.openbittorrent.com%3A80","udp%3A%2F%2Fopen.demonii.com%3A1337","udp%3A%2F%2Ftracker.coppersurfer.tk%3A6969","udp%3A%2F%2Fexodus.desync.com%3A6969"],"infoHash":"bb0623b5345c56514b70bf4d5bc3dd8d9c79ecb6","infoHashBuffer":{"type":"Buffer","data":[187,6,35,181,52,92,86,81,75,112,191,77,91,195,221,141,156,121,236,182]},"announce":[],"urlList":[]}}